<svg width="783" height="783" viewBox="0 0 783 783" fill="none" xmlns="http://www.w3.org/2000/svg">
<g clip-path="url(#clip0_2_2)">
<path d="M783 0H0V783H783V0Z" fill="#0A0A0A"/>
<path d="M126 51H123V54H126V51Z" fill="white"/>
<path d="M180 51H177V54H180V51Z" fill="white"/>
<path d="M375 51H372V54H375V51Z" fill="white"/>
<path d="M429 51H426V54H429V51Z" fill="white"/>
<path d="M678 51H675V54H678V51Z" fill="white"/>
<path d="M72 105H69V108H72V105Z" fill="white"/>
<path d="M126 105H123V108H126V105Z" fill="white"/>
<path d="M180 105H177V108H180V105Z" fill="white"/>
<path d="M375 105H372V108H375V105Z" fill="white"/>
<path d="M429 105H426V108H429V105Z" fill="white"/>
<path d="M624 105H621V108H624V105Z" fill="white"/>
<path d="M678 105H675V108H678V105Z" fill="white"/>
<path d="M732 105H729V108H732V105Z" fill="white"/>
<path d="M126 159H123V162H126V159Z" fill="white"/>
<path d="M180 159H177V162H180V159Z" fill="white"/>
<path d="M375 159H372V162H375V159Z" fill="white"/>
<path d="M429 159H426V162H429V159Z" fill="white"/>
<path d="M483 159H480V162H483V159Z" fill="white"/>
<path d="M486 159H483V162H486V159Z" fill="white"/>
<path d="M492 159H489V162H492V159Z" fill="white"/>
<path d="M678 159H675V162H678V159Z" fill="white"/>
<path d="M483 162H480V165H483V162Z" fill="white"/>
<path d="M492 162H489V165H492V162Z" fill="white"/>
<path d="M495 162H492V165H495V162Z" fill="white"/>
<path d="M483 168H480V171H483V168Z" fill="white"/>
<path d="M486 168H483V171H486V168Z" fill="white"/>
<path d="M492 168H489V171H492V168Z" fill="white"/>
<path d="M495 168H492V171H495V168Z" fill="white"/>
<path d="M504 168H501V171H504V168Z" fill="white"/>
<path d="M483 171H480V174H483V171Z" fill="white"/>
<path d="M486 171H483V174H486V171Z" fill="white"/>
<path d="M492 171H489V174H492V171Z" fill="white"/>
<path d="M495 171H492V174H495V171Z" fill="white"/>
<path d="M504 171H501V174H504V171Z" fill="white"/>
<path d="M507 171H504V174H507V171Z" fill="white"/>
<path d="M483 180H480V183H483V180Z" fill="white"/>
<path d="M486 180H483V183H486V180Z" fill="white"/>
<path d="M492 180H489V183H492V180Z" fill="white"/>
<path d="M495 180H492V183H495V180Z" fill="white"/>
<path d="M504 180H501V183H504V180Z" fill="white"/>
<path d="M507 180H504V183H507V180Z" fill="white"/>
<path d="M513 180H510V183H513V180Z" fill="white"/>
<path d="M516 180H513V183H516V180Z" fill="white"/>
<path d="M519 180H516V183H519V180Z" fill="white"/>
<path d="M588 180H585V183H588V180Z" fill="white"/>
<path d="M591 180H588V183H591V180Z" fill="white"/>
<path d="M594 180H591V183H594V180Z" fill="white"/>
<path d="M600 180H597V183H600V180Z" fill="white"/>
<path d="M603 180H600V183H603V180Z" fill="white"/>
<path d="M483 183H480V186H483V183Z" fill="white"/>
<path d="M486 183H483V186H486V183Z" fill="white"/>
<path d="M492 183H489V186H492V183Z" fill="white"/>
<path d="M495 183H492V186H495V183Z" fill="white"/>
<path d="M504 183H501V186H504V183Z" fill="white"/>
<path d="M507 183H504V186H507V183Z" fill="white"/>
<path d="M513 183H510V186H513V183Z" fill="white"/>
<path d="M516 183H513V186H516V183Z" fill="white"/>
<path d="M579 183H576V186H579V183Z" fill="white"/>
<path d="M582 183H579V186H582V183Z" fill="white"/>
<path d="M591 183H588V186H591V183Z" fill="white"/>
<path d="M594 183H591V186H594V183Z" fill="white"/>
<path d="M600 183H597V186H600V183Z" fill="white"/>
<path d="M603 183H600V186H603V183Z" fill="white"/>
<path d="M483 189H480V192H483V189Z" fill="white"/>
<path d="M492 189H489V192H492V189Z" fill="white"/>
<path d="M495 189H492V192H495V189Z" fill="white"/>
<path d="M504 189H501V192H504V189Z" fill="white"/>
<path d="M507 189H504V192H507V189Z" fill="white"/>
<path d="M516 189H513V192H516V189Z" fill="white"/>
<path d="M525 189H522V192H525V189Z" fill="white"/>
<path d="M528 189H525V192H528V189Z" fill="white"/>
<path d="M561 189H558V192H561V189Z" fill="white"/>
<path d="M570 189H567V192H570V189Z" fill="white"/>
<path d="M579 189H576V192H579V189Z" fill="white"/>
<path d="M582 189H579V192H582V189Z" fill="white"/>
<path d="M591 189H588V192H591V189Z" fill="white"/>
<path d="M600 189H597V192H600V189Z" fill="white"/>
<path d="M603 189H600V192H603V189Z" fill="white"/>
<path d="M483 192H480V195H483V192Z" fill="white"/>
<path d="M486 192H483V195H486V192Z" fill="white"/>
<path d="M492 192H489V195H492V192Z" fill="white"/>
<path d="M495 192H492V195H495V192Z" fill="white"/>
<path d="M504 192H501V195H504V192Z" fill="white"/>
<path d="M507 192H504V195H507V192Z" fill="white"/>
<path d="M513 192H510V195H513V192Z" fill="white"/>
<path d="M516 192H513V195H516V192Z" fill="white"/>
<path d="M519 192H516V195H519V192Z" fill="white"/>
<path d="M525 192H522V195H525V192Z" fill="white"/>
<path d="M528 192H525V195H528V192Z" fill="white"/>
<path d="M534 192H531V195H534V192Z" fill="white"/>
<path d="M537 192H534V195H537V192Z" fill="white"/>
<path d="M549 192H546V195H549V192Z" fill="white"/>
<path d="M558 192H555V195H558V192Z" fill="white"/>
<path d="M561 192H558V195H561V192Z" fill="white"/>
<path d="M567 192H564V195H567V192Z" fill="white"/>
<path d="M570 192H567V195H570V192Z" fill="white"/>
<path d="M573 192H570V195H573V192Z" fill="white"/>
<path d="M579 192H576V195H579V192Z" fill="white"/>
<path d="M582 192H579V195H582V192Z" fill="white"/>
<path d="M588 192H585V195H588V192Z" fill="white"/>
<path d="M591 192H588V195H591V192Z" fill="white"/>
<path d="M594 192H591V195H594V192Z" fill="white"/>
<path d="M600 192H597V195H600V192Z" fill="white"/>
<path d="M603 192H600V195H603V192Z" fill="white"/>
<path d="M483 195H480V198H483V195Z" fill="white"/>
<path d="M495 195H492V198H495V195Z" fill="white"/>
<path d="M504 195H501V198H504V195Z" fill="white"/>
<path d="M516 195H513V198H516V195Z" fill="white"/>
<path d="M537 195H534V198H537V195Z" fill="white"/>
<path d="M549 195H546V198H549V195Z" fill="white"/>
<path d="M558 195H555V198H558V195Z" fill="white"/>
<path d="M570 195H567V198H570V195Z" fill="white"/>
<path d="M591 195H588V198H591V195Z" fill="white"/>
<path d="M603 195H600V198H603V195Z" fill="white"/>
<path d="M483 201H480V204H483V201Z" fill="white"/>
<path d="M486 201H483V204H486V201Z" fill="white"/>
<path d="M492 201H489V204H492V201Z" fill="white"/>
<path d="M495 201H492V204H495V201Z" fill="white"/>
<path d="M504 201H501V204H504V201Z" fill="white"/>
<path d="M507 201H504V204H507V201Z" fill="white"/>
<path d="M513 201H510V204H513V201Z" fill="white"/>
<path d="M516 201H513V204H516V201Z" fill="white"/>
<path d="M525 201H522V204H525V201Z" fill="white"/>
<path d="M528 201H525V204H528V201Z" fill="white"/>
<path d="M534 201H531V204H534V201Z" fill="white"/>
<path d="M537 201H534V204H537V201Z" fill="white"/>
<path d="M540 201H537V204H540V201Z" fill="white"/>
<path d="M546 201H543V204H546V201Z" fill="white"/>
<path d="M549 201H546V204H549V201Z" fill="white"/>
<path d="M558 201H555V204H558V201Z" fill="white"/>
<path d="M561 201H558V204H561V201Z" fill="white"/>
<path d="M567 201H564V204H567V201Z" fill="white"/>
<path d="M570 201H567V204H570V201Z" fill="white"/>
<path d="M573 201H570V204H573V201Z" fill="white"/>
<path d="M579 201H576V204H579V201Z" fill="white"/>
<path d="M582 201H579V204H582V201Z" fill="white"/>
<path d="M591 201H588V204H591V201Z" fill="white"/>
<path d="M594 201H591V204H594V201Z" fill="white"/>
<path d="M600 201H597V204H600V201Z" fill="white"/>
<path d="M483 204H480V207H483V204Z" fill="white"/>
<path d="M486 204H483V207H486V204Z" fill="white"/>
<path d="M492 204H489V207H492V204Z" fill="white"/>
<path d="M495 204H492V207H495V204Z" fill="white"/>
<path d="M504 204H501V207H504V204Z" fill="white"/>
<path d="M507 204H504V207H507V204Z" fill="white"/>
<path d="M513 204H510V207H513V204Z" fill="white"/>
<path d="M516 204H513V207H516V204Z" fill="white"/>
<path d="M525 204H522V207H525V204Z" fill="white"/>
<path d="M528 204H525V207H528V204Z" fill="white"/>
<path d="M537 204H534V207H537V204Z" fill="white"/>
<path d="M540 204H537V207H540V204Z" fill="white"/>
<path d="M546 204H543V207H546V204Z" fill="white"/>
<path d="M549 204H546V207H549V204Z" fill="white"/>
<path d="M558 204H555V207H558V204Z" fill="white"/>
<path d="M561 204H558V207H561V204Z" fill="white"/>
<path d="M567 204H564V207H567V204Z" fill="white"/>
<path d="M570 204H567V207H570V204Z" fill="white"/>
<path d="M573 204H570V207H573V204Z" fill="white"/>
<path d="M579 204H576V207H579V204Z" fill="white"/>
<path d="M582 204H579V207H582V204Z" fill="white"/>
<path d="M591 204H588V207H591V204Z" fill="white"/>
<path d="M594 204H591V207H594V204Z" fill="white"/>
<path d="M600 204H597V207H600V204Z" fill="white"/>
<path d="M483 210H480V213H483V210Z" fill="white"/>
<path d="M495 210H492V213H495V210Z" fill="white"/>
<path d="M504 210H501V213H504V210Z" fill="white"/>
<path d="M516 210H513V213H516V210Z" fill="white"/>
<path d="M525 210H522V213H525V210Z" fill="white"/>
<path d="M528 210H525V213H528V210Z" fill="white"/>
<path d="M537 210H534V213H537V210Z" fill="white"/>
<path d="M549 210H546V213H549V210Z" fill="white"/>
<path d="M558 210H555V213H558V210Z" fill="white"/>
<path d="M570 210H567V213H570V210Z" fill="white"/>
<path d="M579 210H576V213H579V210Z" fill="white"/>
<path d="M582 210H579V213H582V210Z" fill="white"/>
<path d="M591 210H588V213H591V210Z" fill="white"/>
<path d="M483 213H480V216H483V213Z" fill="white"/>
<path d="M486 213H483V216H486V213Z" fill="white"/>
<path d="M492 213H489V216H492V213Z" fill="white"/>
<path d="M495 213H492V216H495V213Z" fill="white"/>
<path d="M504 213H501V216H504V213Z" fill="white"/>
<path d="M507 213H504V216H507V213Z" fill="white"/>
<path d="M513 213H510V216H513V213Z" fill="white"/>
<path d="M516 213H513V216H516V213Z" fill="white"/>
<path d="M519 213H516V216H519V213Z" fill="white"/>
<path d="M525 213H522V216H525V213Z" fill="white"/>
<path d="M528 213H525V216H528V213Z" fill="white"/>
<path d="M534 213H531V216H534V213Z" fill="white"/>
<path d="M537 213H534V216H537V213Z" fill="white"/>
<path d="M540 213H537V216H540V213Z" fill="white"/>
<path d="M546 213H543V216H546V213Z" fill="white"/>
<path d="M549 213H546V216H549V213Z" fill="white"/>
<path d="M558 213H555V216H558V213Z" fill="white"/>
<path d="M561 213H558V216H561V213Z" fill="white"/>
<path d="M567 213H564V216H567V213Z" fill="white"/>
<path d="M570 213H567V216H570V213Z" fill="white"/>
<path d="M573 213H570V216H573V213Z" fill="white"/>
<path d="M579 213H576V216H579V213Z" fill="white"/>
<path d="M582 213H579V216H582V213Z" fill="white"/>
<path d="M588 213H585V216H588V213Z" fill="white"/>
<path d="M591 213H588V216H591V213Z" fill="white"/>
<path d="M594 213H591V216H594V213Z" fill="white"/>
<path d="M483 216H480V219H483V216Z" fill="white"/>
<path d="M492 216H489V219H492V216Z" fill="white"/>
<path d="M495 216H492V219H495V216Z" fill="white"/>
<path d="M504 216H501V219H504V216Z" fill="white"/>
<path d="M507 216H504V219H507V216Z" fill="white"/>
<path d="M516 216H513V219H516V216Z" fill="white"/>
<path d="M525 216H522V219H525V216Z" fill="white"/>
<path d="M528 216H525V219H528V216Z" fill="white"/>
<path d="M537 216H534V219H537V216Z" fill="white"/>
<path d="M546 216H543V219H546V216Z" fill="white"/>
<path d="M549 216H546V219H549V216Z" fill="white"/>
<path d="M558 216H555V219H558V216Z" fill="white"/>
<path d="M561 216H558V219H561V216Z" fill="white"/>
<path d="M570 216H567V219H570V216Z" fill="white"/>
<path d="M579 216H576V219H579V216Z" fill="white"/>
<path d="M582 216H579V219H582V216Z" fill="white"/>
<path d="M591 216H588V219H591V216Z" fill="white"/>
<path d="M483 222H480V225H483V222Z" fill="white"/>
<path d="M486 222H483V225H486V222Z" fill="white"/>
<path d="M492 222H489V225H492V222Z" fill="white"/>
<path d="M495 222H492V225H495V222Z" fill="white"/>
<path d="M504 222H501V225H504V222Z" fill="white"/>
<path d="M507 222H504V225H507V222Z" fill="white"/>
<path d="M513 222H510V225H513V222Z" fill="white"/>
<path d="M516 222H513V225H516V222Z" fill="white"/>
<path d="M525 222H522V225H525V222Z" fill="white"/>
<path d="M528 222H525V225H528V222Z" fill="white"/>
<path d="M537 222H534V225H537V222Z" fill="white"/>
<path d="M540 222H537V225H540V222Z" fill="white"/>
<path d="M546 222H543V225H546V222Z" fill="white"/>
<path d="M549 222H546V225H549V222Z" fill="white"/>
<path d="M558 222H555V225H558V222Z" fill="white"/>
<path d="M561 222H558V225H561V222Z" fill="white"/>
<path d="M567 222H564V225H567V222Z" fill="white"/>
<path d="M570 222H567V225H570V222Z" fill="white"/>
<path d="M579 222H576V225H579V222Z" fill="white"/>
<path d="M582 222H579V225H582V222Z" fill="white"/>
<path d="M591 222H588V225H591V222Z" fill="white"/>
<path d="M594 222H591V225H594V222Z" fill="white"/>
<path d="M483 225H480V228H483V225Z" fill="white"/>
<path d="M486 225H483V228H486V225Z" fill="white"/>
<path d="M492 225H489V228H492V225Z" fill="white"/>
<path d="M495 225H492V228H495V225Z" fill="white"/>
<path d="M504 225H501V228H504V225Z" fill="white"/>
<path d="M507 225H504V228H507V225Z" fill="white"/>
<path d="M513 225H510V228H513V225Z" fill="white"/>
<path d="M516 225H513V228H516V225Z" fill="white"/>
<path d="M519 225H516V228H519V225Z" fill="white"/>
<path d="M525 225H522V228H525V225Z" fill="white"/>
<path d="M528 225H525V228H528V225Z" fill="white"/>
<path d="M534 225H531V228H534V225Z" fill="white"/>
<path d="M537 225H534V228H537V225Z" fill="white"/>
<path d="M540 225H537V228H540V225Z" fill="white"/>
<path d="M546 225H543V228H546V225Z" fill="white"/>
<path d="M549 225H546V228H549V225Z" fill="white"/>
<path d="M558 225H555V228H558V225Z" fill="white"/>
<path d="M561 225H558V228H561V225Z" fill="white"/>
<path d="M567 225H564V228H567V225Z" fill="white"/>
<path d="M570 225H567V228H570V225Z" fill="white"/>
<path d="M573 225H570V228H573V225Z" fill="white"/>
<path d="M579 225H576V228H579V225Z" fill="white"/>
<path d="M582 225H579V228H582V225Z" fill="white"/>
<path d="M588 225H585V228H588V225Z" fill="white"/>
<path d="M591 225H588V228H591V225Z" fill="white"/>
<path d="M471 234H468V237H471V234Z" fill="white"/>
<path d="M474 234H471V237H474V234Z" fill="white"/>
<path d="M480 234H477V237H480V234Z" fill="white"/>
<path d="M483 234H480V237H483V234Z" fill="white"/>
<path d="M486 234H483V237H486V234Z" fill="white"/>
<path d="M492 234H489V237H492V234Z" fill="white"/>
<path d="M495 234H492V237H495V234Z" fill="white"/>
<path d="M504 234H501V237H504V234Z" fill="white"/>
<path d="M507 234H504V237H507V234Z" fill="white"/>
<path d="M513 234H510V237H513V234Z" fill="white"/>
<path d="M516 234H513V237H516V234Z" fill="white"/>
<path d="M519 234H516V237H519V234Z" fill="white"/>
<path d="M525 234H522V237H525V234Z" fill="white"/>
<path d="M528 234H525V237H528V234Z" fill="white"/>
<path d="M534 234H531V237H534V234Z" fill="white"/>
<path d="M537 234H534V237H537V234Z" fill="white"/>
<path d="M540 234H537V237H540V234Z" fill="white"/>
<path d="M546 234H543V237H546V234Z" fill="white"/>
<path d="M549 234H546V237H549V234Z" fill="white"/>
<path d="M558 234H555V237H558V234Z" fill="white"/>
<path d="M561 234H558V237H561V234Z" fill="white"/>
<path d="M567 234H564V237H567V234Z" fill="white"/>
<path d="M570 234H567V237H570V234Z" fill="white"/>
<path d="M573 234H570V237H573V234Z" fill="white"/>
<path d="M579 234H576V237H579V234Z" fill="white"/>
<path d="M582 234H579V237H582V234Z" fill="white"/>
<path d="M588 234H585V237H588V234Z" fill="white"/>
<path d="M591 234H588V237H591V234Z" fill="white"/>
<path d="M471 237H468V240H471V237Z" fill="white"/>
<path d="M474 237H471V240H474V237Z" fill="white"/>
<path d="M483 237H480V240H483V237Z" fill="white"/>
<path d="M486 237H483V240H486V237Z" fill="white"/>
<path d="M492 237H489V240H492V237Z" fill="white"/>
<path d="M495 237H492V240H495V237Z" fill="white"/>
<path d="M504 237H501V240H504V237Z" fill="white"/>
<path d="M507 237H504V240H507V237Z" fill="white"/>
<path d="M513 237H510V240H513V237Z" fill="white"/>
<path d="M516 237H513V240H516V237Z" fill="white"/>
<path d="M525 237H522V240H525V237Z" fill="white"/>
<path d="M528 237H525V240H528V237Z" fill="white"/>
<path d="M537 237H534V240H537V237Z" fill="white"/>
<path d="M540 237H537V240H540V237Z" fill="white"/>
<path d="M546 237H543V240H546V237Z" fill="white"/>
<path d="M549 237H546V240H549V237Z" fill="white"/>
<path d="M558 237H555V240H558V237Z" fill="white"/>
<path d="M561 237H558V240H561V237Z" fill="white"/>
<path d="M567 237H564V240H567V237Z" fill="white"/>
<path d="M570 237H567V240H570V237Z" fill="white"/>
<path d="M579 237H576V240H579V237Z" fill="white"/>
<path d="M582 237H579V240H582V237Z" fill="white"/>
<path d="M462 243H459V246H462V243Z" fill="white"/>
<path d="M471 243H468V246H471V243Z" fill="white"/>
<path d="M474 243H471V246H474V243Z" fill="white"/>
<path d="M483 243H480V246H483V243Z" fill="white"/>
<path d="M492 243H489V246H492V243Z" fill="white"/>
<path d="M495 243H492V246H495V243Z" fill="white"/>
<path d="M504 243H501V246H504V243Z" fill="white"/>
<path d="M507 243H504V246H507V243Z" fill="white"/>
<path d="M516 243H513V246H516V243Z" fill="white"/>
<path d="M525 243H522V246H525V243Z" fill="white"/>
<path d="M528 243H525V246H528V243Z" fill="white"/>
<path d="M537 243H534V246H537V243Z" fill="white"/>
<path d="M546 243H543V246H546V243Z" fill="white"/>
<path d="M549 243H546V246H549V243Z" fill="white"/>
<path d="M558 243H555V246H558V243Z" fill="white"/>
<path d="M561 243H558V246H561V243Z" fill="white"/>
<path d="M570 243H567V246H570V243Z" fill="white"/>
<path d="M579 243H576V246H579V243Z" fill="white"/>
<path d="M582 243H579V246H582V243Z" fill="white"/>
<path d="M453 246H450V249H453V246Z" fill="white"/>
<path d="M459 246H456V249H459V246Z" fill="white"/>
<path d="M462 246H459V249H462V246Z" fill="white"/>
<path d="M465 246H462V249H465V246Z" fill="white"/>
<path d="M471 246H468V249H471V246Z" fill="white"/>
<path d="M474 246H471V249H474V246Z" fill="white"/>
<path d="M480 246H477V249H480V246Z" fill="white"/>
<path d="M483 246H480V249H483V246Z" fill="white"/>
<path d="M486 246H483V249H486V246Z" fill="white"/>
<path d="M492 246H489V249H492V246Z" fill="white"/>
<path d="M495 246H492V249H495V246Z" fill="white"/>
<path d="M504 246H501V249H504V246Z" fill="white"/>
<path d="M507 246H504V249H507V246Z" fill="white"/>
<path d="M513 246H510V249H513V246Z" fill="white"/>
<path d="M516 246H513V249H516V246Z" fill="white"/>
<path d="M519 246H516V249H519V246Z" fill="white"/>
<path d="M525 246H522V249H525V246Z" fill="white"/>
<path d="M528 246H525V249H528V246Z" fill="white"/>
<path d="M534 246H531V249H534V246Z" fill="white"/>
<path d="M537 246H534V249H537V246Z" fill="white"/>
<path d="M540 246H537V249H540V246Z" fill="white"/>
<path d="M546 246H543V249H546V246Z" fill="white"/>
<path d="M549 246H546V249H549V246Z" fill="white"/>
<path d="M558 246H555V249H558V246Z" fill="white"/>
<path d="M561 246H558V249H561V246Z" fill="white"/>
<path d="M567 246H564V249H567V246Z" fill="white"/>
<path d="M570 246H567V249H570V246Z" fill="white"/>
<path d="M573 246H570V249H573V246Z" fill="white"/>
<path d="M579 246H576V249H579V246Z" fill="white"/>
<path d="M582 246H579V249H582V246Z" fill="white"/>
<path d="M588 246H585V249H588V246Z" fill="white"/>
<path d="M591 246H588V249H591V246Z" fill="white"/>
<path d="M450 249H447V252H450V249Z" fill="white"/>
<path d="M462 249H459V252H462V249Z" fill="white"/>
<path d="M471 249H468V252H471V249Z" fill="white"/>
<path d="M483 249H480V252H483V249Z" fill="white"/>
<path d="M495 249H492V252H495V249Z" fill="white"/>
<path d="M504 249H501V252H504V249Z" fill="white"/>
<path d="M516 249H513V252H516V249Z" fill="white"/>
<path d="M525 249H522V252H525V249Z" fill="white"/>
<path d="M528 249H525V252H528V249Z" fill="white"/>
<path d="M537 249H534V252H537V249Z" fill="white"/>
<path d="M549 249H546V252H549V249Z" fill="white"/>
<path d="M558 249H555V252H558V249Z" fill="white"/>
<path d="M570 249H567V252H570V249Z" fill="white"/>
<path d="M582 249H579V252H582V249Z" fill="white"/>
<path d="M591 249H588V252H591V249Z" fill="white"/>
<path d="M441 255H438V258H441V255Z" fill="white"/>
<path d="M450 255H447V258H450V255Z" fill="white"/>
<path d="M453 255H450V258H453V255Z" fill="white"/>
<path d="M459 255H456V258H459V255Z" fill="white"/>
<path d="M462 255H459V258H462V255Z" fill="white"/>
<path d="M471 255H468V258H471V255Z" fill="white"/>
<path d="M474 255H471V258H474V255Z" fill="white"/>
<path d="M480 255H477V258H480V255Z" fill="white"/>
<path d="M483 255H480V258H483V255Z" fill="white"/>
<path d="M486 255H483V258H486V255Z" fill="white"/>
<path d="M492 255H489V258H492V255Z" fill="white"/>
<path d="M495 255H492V258H495V255Z" fill="white"/>
<path d="M504 255H501V258H504V255Z" fill="white"/>
<path d="M507 255H504V258H507V255Z" fill="white"/>
<path d="M513 255H510V258H513V255Z" fill="white"/>
<path d="M516 255H513V258H516V255Z" fill="white"/>
<path d="M525 255H522V258H525V255Z" fill="white"/>
<path d="M528 255H525V258H528V255Z" fill="white"/>
<path d="M534 255H531V258H534V255Z" fill="white"/>
<path d="M537 255H534V258H537V255Z" fill="white"/>
<path d="M540 255H537V258H540V255Z" fill="white"/>
<path d="M546 255H543V258H546V255Z" fill="white"/>
<path d="M549 255H546V258H549V255Z" fill="white"/>
<path d="M558 255H555V258H558V255Z" fill="white"/>
<path d="M561 255H558V258H561V255Z" fill="white"/>
<path d="M567 255H564V258H567V255Z" fill="white"/>
<path d="M570 255H567V258H570V255Z" fill="white"/>
<path d="M573 255H570V258H573V255Z" fill="white"/>
<path d="M579 255H576V258H579V255Z" fill="white"/>
<path d="M582 255H579V258H582V255Z" fill="white"/>
<path d="M591 255H588V258H591V255Z" fill="white"/>
<path d="M594 255H591V258H594V255Z" fill="white"/>
<path d="M438 258H435V261H438V258Z" fill="white"/>
<path d="M441 258H438V261H441V258Z" fill="white"/>
<path d="M450 258H447V261H450V258Z" fill="white"/>
<path d="M453 258H450V261H453V258Z" fill="white"/>
<path d="M459 258H456V261H459V258Z" fill="white"/>
<path d="M462 258H459V261H462V258Z" fill="white"/>
<path d="M471 258H468V261H471V258Z" fill="white"/>
<path d="M474 258H471V261H474V258Z" fill="white"/>
<path d="M480 258H477V261H480V258Z" fill="white"/>
<path d="M483 258H480V261H483V258Z" fill="white"/>
<path d="M486 258H483V261H486V258Z" fill="white"/>
<path d="M492 258H489V261H492V258Z" fill="white"/>
<path d="M495 258H492V261H495V258Z" fill="white"/>
<path d="M504 258H501V261H504V258Z" fill="white"/>
<path d="M507 258H504V261H507V258Z" fill="white"/>
<path d="M513 258H510V261H513V258Z" fill="white"/>
<path d="M516 258H513V261H516V258Z" fill="white"/>
<path d="M525 258H522V261H525V258Z" fill="white"/>
<path d="M528 258H525V261H528V258Z" fill="white"/>
<path d="M534 258H531V261H534V258Z" fill="white"/>
<path d="M537 258H534V261H537V258Z" fill="white"/>
<path d="M540 258H537V261H540V258Z" fill="white"/>
<path d="M546 258H543V261H546V258Z" fill="white"/>
<path d="M549 258H546V261H549V258Z" fill="white"/>
<path d="M558 258H555V261H558V258Z" fill="white"/>
<path d="M561 258H558V261H561V258Z" fill="white"/>
<path d="M567 258H564V261H567V258Z" fill="white"/>
<path d="M570 258H567V261H570V258Z" fill="white"/>
<path d="M573 258H570V261H573V258Z" fill="white"/>
<path d="M579 258H576V261H579V258Z" fill="white"/>
<path d="M582 258H579V261H582V258Z" fill="white"/>
<path d="M591 258H588V261H591V258Z" fill="white"/>
<path d="M594 258H591V261H594V258Z" fill="white"/>
<path d="M441 264H438V267H441V264Z" fill="white"/>
<path d="M450 264H447V267H450V264Z" fill="white"/>
<path d="M462 264H459V267H462V264Z" fill="white"/>
<path d="M471 264H468V267H471V264Z" fill="white"/>
<path d="M483 264H480V267H483V264Z" fill="white"/>
<path d="M495 264H492V267H495V264Z" fill="white"/>
<path d="M504 264H501V267H504V264Z" fill="white"/>
<path d="M516 264H513V267H516V264Z" fill="white"/>
<path d="M537 264H534V267H537V264Z" fill="white"/>
<path d="M549 264H546V267H549V264Z" fill="white"/>
<path d="M558 264H555V267H558V264Z" fill="white"/>
<path d="M570 264H567V267H570V264Z" fill="white"/>
<path d="M591 264H588V267H591V264Z" fill="white"/>
<path d="M603 264H600V267H603V264Z" fill="white"/>
<path d="M429 267H426V270H429V267Z" fill="white"/>
<path d="M432 267H429V270H432V267Z" fill="white"/>
<path d="M438 267H435V270H438V267Z" fill="white"/>
<path d="M441 267H438V270H441V267Z" fill="white"/>
<path d="M450 267H447V270H450V267Z" fill="white"/>
<path d="M453 267H450V270H453V267Z" fill="white"/>
<path d="M459 267H456V270H459V267Z" fill="white"/>
<path d="M462 267H459V270H462V267Z" fill="white"/>
<path d="M465 267H462V270H465V267Z" fill="white"/>
<path d="M471 267H468V270H471V267Z" fill="white"/>
<path d="M474 267H471V270H474V267Z" fill="white"/>
<path d="M480 267H477V270H480V267Z" fill="white"/>
<path d="M483 267H480V270H483V267Z" fill="white"/>
<path d="M486 267H483V270H486V267Z" fill="white"/>
<path d="M492 267H489V270H492V267Z" fill="white"/>
<path d="M495 267H492V270H495V267Z" fill="white"/>
<path d="M504 267H501V270H504V267Z" fill="white"/>
<path d="M507 267H504V270H507V267Z" fill="white"/>
<path d="M513 267H510V270H513V267Z" fill="white"/>
<path d="M516 267H513V270H516V267Z" fill="white"/>
<path d="M519 267H516V270H519V267Z" fill="white"/>
<path d="M525 267H522V270H525V267Z" fill="white"/>
<path d="M528 267H525V270H528V267Z" fill="white"/>
<path d="M534 267H531V270H534V267Z" fill="white"/>
<path d="M537 267H534V270H537V267Z" fill="white"/>
<path d="M540 267H537V270H540V267Z" fill="white"/>
<path d="M546 267H543V270H546V267Z" fill="white"/>
<path d="M549 267H546V270H549V267Z" fill="white"/>
<path d="M558 267H555V270H558V267Z" fill="white"/>
<path d="M561 267H558V270H561V267Z" fill="white"/>
<path d="M567 267H564V270H567V267Z" fill="white"/>
<path d="M570 267H567V270H570V267Z" fill="white"/>
<path d="M573 267H570V270H573V267Z" fill="white"/>
<path d="M579 267H576V270H579V267Z" fill="white"/>
<path d="M582 267H579V270H582V267Z" fill="white"/>
<path d="M588 267H585V270H588V267Z" fill="white"/>
<path d="M591 267H588V270H591V267Z" fill="white"/>
<path d="M594 267H591V270H594V267Z" fill="white"/>
<path d="M600 267H597V270H600V267Z" fill="white"/>
<path d="M603 267H600V270H603V267Z" fill="white"/>
<path d="M438 270H435V273H438V270Z" fill="white"/>
<path d="M441 270H438V273H441V270Z" fill="white"/>
<path d="M450 270H447V273H450V270Z" fill="white"/>
<path d="M453 270H450V273H453V270Z" fill="white"/>
<path d="M462 270H459V273H462V270Z" fill="white"/>
<path d="M471 270H468V273H471V270Z" fill="white"/>
<path d="M474 270H471V273H474V270Z" fill="white"/>
<path d="M483 270H480V273H483V270Z" fill="white"/>
<path d="M492 270H489V273H492V270Z" fill="white"/>
<path d="M495 270H492V273H495V270Z" fill="white"/>
<path d="M504 270H501V273H504V270Z" fill="white"/>
<path d="M507 270H504V273H507V270Z" fill="white"/>
<path d="M516 270H513V273H516V270Z" fill="white"/>
<path d="M525 270H522V273H525V270Z" fill="white"/>
<path d="M528 270H525V273H528V270Z" fill="white"/>
<path d="M537 270H534V273H537V270Z" fill="white"/>
<path d="M546 270H543V273H546V270Z" fill="white"/>
<path d="M549 270H546V273H549V270Z" fill="white"/>
<path d="M558 270H555V273H558V270Z" fill="white"/>
<path d="M561 270H558V273H561V270Z" fill="white"/>
<path d="M570 270H567V273H570V270Z" fill="white"/>
<path d="M579 270H576V273H579V270Z" fill="white"/>
<path d="M582 270H579V273H582V270Z" fill="white"/>
<path d="M591 270H588V273H591V270Z" fill="white"/>
<path d="M600 270H597V273H600V270Z" fill="white"/>
<path d="M603 270H600V273H603V270Z" fill="white"/>
<path d="M450 276H447V279H450V276Z" fill="white"/>
<path d="M453 276H450V279H453V276Z" fill="white"/>
<path d="M459 276H456V279H459V276Z" fill="white"/>
<path d="M462 276H459V279H462V276Z" fill="white"/>
<path d="M471 276H468V279H471V276Z" fill="white"/>
<path d="M474 276H471V279H474V276Z" fill="white"/>
<path d="M483 276H480V279H483V276Z" fill="white"/>
<path d="M486 276H483V279H486V276Z" fill="white"/>
<path d="M492 276H489V279H492V276Z" fill="white"/>
<path d="M495 276H492V279H495V276Z" fill="white"/>
<path d="M504 276H501V279H504V276Z" fill="white"/>
<path d="M507 276H504V279H507V276Z" fill="white"/>
<path d="M513 276H510V279H513V276Z" fill="white"/>
<path d="M516 276H513V279H516V276Z" fill="white"/>
<path d="M525 276H522V279H525V276Z" fill="white"/>
<path d="M528 276H525V279H528V276Z" fill="white"/>
<path d="M537 276H534V279H537V276Z" fill="white"/>
<path d="M540 276H537V279H540V276Z" fill="white"/>
<path d="M546 276H543V279H546V276Z" fill="white"/>
<path d="M549 276H546V279H549V276Z" fill="white"/>
<path d="M558 276H555V279H558V276Z" fill="white"/>
<path d="M561 276H558V279H561V276Z" fill="white"/>
<path d="M567 276H564V279H567V276Z" fill="white"/>
<path d="M570 276H567V279H570V276Z" fill="white"/>
<path d="M579 276H576V279H579V276Z" fill="white"/>
<path d="M582 276H579V279H582V276Z" fill="white"/>
<path d="M591 276H588V279H591V276Z" fill="white"/>
<path d="M594 276H591V279H594V276Z" fill="white"/>
<path d="M600 276H597V279H600V276Z" fill="white"/>
<path d="M603 276H600V279H603V276Z" fill="white"/>
<path d="M612 276H609V279H612V276Z" fill="white"/>
<path d="M459 279H456V282H459V279Z" fill="white"/>
<path d="M462 279H459V282H462V279Z" fill="white"/>
<path d="M465 279H462V282H465V279Z" fill="white"/>
<path d="M471 279H468V282H471V279Z" fill="white"/>
<path d="M474 279H471V282H474V279Z" fill="white"/>
<path d="M480 279H477V282H480V279Z" fill="white"/>
<path d="M483 279H480V282H483V279Z" fill="white"/>
<path d="M486 279H483V282H486V279Z" fill="white"/>
<path d="M492 279H489V282H492V279Z" fill="white"/>
<path d="M495 279H492V282H495V279Z" fill="white"/>
<path d="M504 279H501V282H504V279Z" fill="white"/>
<path d="M507 279H504V282H507V279Z" fill="white"/>
<path d="M513 279H510V282H513V279Z" fill="white"/>
<path d="M516 279H513V282H516V279Z" fill="white"/>
<path d="M519 279H516V282H519V279Z" fill="white"/>
<path d="M525 279H522V282H525V279Z" fill="white"/>
<path d="M528 279H525V282H528V279Z" fill="white"/>
<path d="M534 279H531V282H534V279Z" fill="white"/>
<path d="M537 279H534V282H537V279Z" fill="white"/>
<path d="M540 279H537V282H540V279Z" fill="white"/>
<path d="M546 279H543V282H546V279Z" fill="white"/>
<path d="M549 279H546V282H549V279Z" fill="white"/>
<path d="M558 279H555V282H558V279Z" fill="white"/>
<path d="M561 279H558V282H561V279Z" fill="white"/>
<path d="M567 279H564V282H567V279Z" fill="white"/>
<path d="M570 279H567V282H570V279Z" fill="white"/>
<path d="M573 279H570V282H573V279Z" fill="white"/>
<path d="M579 279H576V282H579V279Z" fill="white"/>
<path d="M582 279H579V282H582V279Z" fill="white"/>
<path d="M588 279H585V282H588V279Z" fill="white"/>
<path d="M591 279H588V282H591V279Z" fill="white"/>
<path d="M594 279H591V282H594V279Z" fill="white"/>
<path d="M600 279H597V282H600V279Z" fill="white"/>
<path d="M603 279H600V282H603V279Z" fill="white"/>
<path d="M612 279H609V282H612V279Z" fill="white"/>
<path d="M615 279H612V282H615V279Z" fill="white"/>
<path d="M480 288H477V291H480V288Z" fill="white"/>
<path d="M483 288H480V291H483V288Z" fill="white"/>
<path d="M486 288H483V291H486V288Z" fill="white"/>
<path d="M492 288H489V291H492V288Z" fill="white"/>
<path d="M495 288H492V291H495V288Z" fill="white"/>
<path d="M504 288H501V291H504V288Z" fill="white"/>
<path d="M507 288H504V291H507V288Z" fill="white"/>
<path d="M513 288H510V291H513V288Z" fill="white"/>
<path d="M516 288H513V291H516V288Z" fill="white"/>
<path d="M519 288H516V291H519V288Z" fill="white"/>
<path d="M525 288H522V291H525V288Z" fill="white"/>
<path d="M528 288H525V291H528V288Z" fill="white"/>
<path d="M534 288H531V291H534V288Z" fill="white"/>
<path d="M537 288H534V291H537V288Z" fill="white"/>
<path d="M540 288H537V291H540V288Z" fill="white"/>
<path d="M546 288H543V291H546V288Z" fill="white"/>
<path d="M549 288H546V291H549V288Z" fill="white"/>
<path d="M558 288H555V291H558V288Z" fill="white"/>
<path d="M561 288H558V291H561V288Z" fill="white"/>
<path d="M567 288H564V291H567V288Z" fill="white"/>
<path d="M570 288H567V291H570V288Z" fill="white"/>
<path d="M573 288H570V291H573V288Z" fill="white"/>
<path d="M579 288H576V291H579V288Z" fill="white"/>
<path d="M582 288H579V291H582V288Z" fill="white"/>
<path d="M588 288H585V291H588V288Z" fill="white"/>
<path d="M591 288H588V291H591V288Z" fill="white"/>
<path d="M594 288H591V291H594V288Z" fill="white"/>
<path d="M600 288H597V291H600V288Z" fill="white"/>
<path d="M603 288H600V291H603V288Z" fill="white"/>
<path d="M612 288H609V291H612V288Z" fill="white"/>
<path d="M615 288H612V291H615V288Z" fill="white"/>
<path d="M621 288H618V291H621V288Z" fill="white"/>
<path d="M474 291H471V294H474V291Z" fill="white"/>
<path d="M483 291H480V294H483V291Z" fill="white"/>
<path d="M495 291H492V294H495V291Z" fill="white"/>
<path d="M504 291H501V294H504V291Z" fill="white"/>
<path d="M507 291H504V294H507V291Z" fill="white"/>
<path d="M513 291H510V294H513V291Z" fill="white"/>
<path d="M516 291H513V294H516V291Z" fill="white"/>
<path d="M525 291H522V294H525V291Z" fill="white"/>
<path d="M528 291H525V294H528V291Z" fill="white"/>
<path d="M537 291H534V294H537V291Z" fill="white"/>
<path d="M540 291H537V294H540V291Z" fill="white"/>
<path d="M546 291H543V294H546V291Z" fill="white"/>
<path d="M549 291H546V294H549V291Z" fill="white"/>
<path d="M558 291H555V294H558V291Z" fill="white"/>
<path d="M561 291H558V294H561V291Z" fill="white"/>
<path d="M567 291H564V294H567V291Z" fill="white"/>
<path d="M570 291H567V294H570V291Z" fill="white"/>
<path d="M579 291H576V294H579V291Z" fill="white"/>
<path d="M582 291H579V294H582V291Z" fill="white"/>
<path d="M591 291H588V294H591V291Z" fill="white"/>
<path d="M594 291H591V294H594V291Z" fill="white"/>
<path d="M600 291H597V294H600V291Z" fill="white"/>
<path d="M603 291H600V294H603V291Z" fill="white"/>
<path d="M612 291H609V294H612V291Z" fill="white"/>
<path d="M615 291H612V294H615V291Z" fill="white"/>
<path d="M621 291H618V294H621V291Z" fill="white"/>
<path d="M624 291H621V294H624V291Z" fill="white"/>
<path d="M471 297H468V300H471V297Z" fill="white"/>
<path d="M474 297H471V300H474V297Z" fill="white"/>
<path d="M495 297H492V300H495V297Z" fill="white"/>
<path d="M504 297H501V300H504V297Z" fill="white"/>
<path d="M507 297H504V300H507V297Z" fill="white"/>
<path d="M516 297H513V300H516V297Z" fill="white"/>
<path d="M525 297H522V300H525V297Z" fill="white"/>
<path d="M528 297H525V300H528V297Z" fill="white"/>
<path d="M537 297H534V300H537V297Z" fill="white"/>
<path d="M546 297H543V300H546V297Z" fill="white"/>
<path d="M549 297H546V300H549V297Z" fill="white"/>
<path d="M558 297H555V300H558V297Z" fill="white"/>
<path d="M561 297H558V300H561V297Z" fill="white"/>
<path d="M570 297H567V300H570V297Z" fill="white"/>
<path d="M579 297H576V300H579V297Z" fill="white"/>
<path d="M582 297H579V300H582V297Z" fill="white"/>
<path d="M591 297H588V300H591V297Z" fill="white"/>
<path d="M600 297H597V300H600V297Z" fill="white"/>
<path d="M603 297H600V300H603V297Z" fill="white"/>
<path d="M612 297H609V300H612V297Z" fill="white"/>
<path d="M615 297H612V300H615V297Z" fill="white"/>
<path d="M624 297H621V300H624V297Z" fill="white"/>
<path d="M462 300H459V303H462V300Z" fill="white"/>
<path d="M465 300H462V303H465V300Z" fill="white"/>
<path d="M471 300H468V303H471V300Z" fill="white"/>
<path d="M474 300H471V303H474V300Z" fill="white"/>
<path d="M492 300H489V303H492V300Z" fill="white"/>
<path d="M495 300H492V303H495V300Z" fill="white"/>
<path d="M504 300H501V303H504V300Z" fill="white"/>
<path d="M507 300H504V303H507V300Z" fill="white"/>
<path d="M513 300H510V303H513V300Z" fill="white"/>
<path d="M516 300H513V303H516V300Z" fill="white"/>
<path d="M519 300H516V303H519V300Z" fill="white"/>
<path d="M525 300H522V303H525V300Z" fill="white"/>
<path d="M528 300H525V303H528V300Z" fill="white"/>
<path d="M534 300H531V303H534V300Z" fill="white"/>
<path d="M537 300H534V303H537V300Z" fill="white"/>
<path d="M540 300H537V303H540V300Z" fill="white"/>
<path d="M546 300H543V303H546V300Z" fill="white"/>
<path d="M549 300H546V303H549V300Z" fill="white"/>
<path d="M558 300H555V303H558V300Z" fill="white"/>
<path d="M561 300H558V303H561V300Z" fill="white"/>
<path d="M567 300H564V303H567V300Z" fill="white"/>
<path d="M570 300H567V303H570V300Z" fill="white"/>
<path d="M573 300H570V303H573V300Z" fill="white"/>
<path d="M579 300H576V303H579V300Z" fill="white"/>
<path d="M582 300H579V303H582V300Z" fill="white"/>
<path d="M588 300H585V303H588V300Z" fill="white"/>
<path d="M591 300H588V303H591V300Z" fill="white"/>
<path d="M594 300H591V303H594V300Z" fill="white"/>
<path d="M600 300H597V303H600V300Z" fill="white"/>
<path d="M603 300H600V303H603V300Z" fill="white"/>
<path d="M612 300H609V303H612V300Z" fill="white"/>
<path d="M615 300H612V303H615V300Z" fill="white"/>
<path d="M621 300H618V303H621V300Z" fill="white"/>
<path d="M624 300H621V303H624V300Z" fill="white"/>
<path d="M462 303H459V306H462V303Z" fill="white"/>
<path d="M471 303H468V306H471V303Z" fill="white"/>
<path d="M495 303H492V306H495V303Z" fill="white"/>
<path d="M504 303H501V306H504V303Z" fill="white"/>
<path d="M516 303H513V306H516V303Z" fill="white"/>
<path d="M525 303H522V306H525V303Z" fill="white"/>
<path d="M528 303H525V306H528V303Z" fill="white"/>
<path d="M537 303H534V306H537V303Z" fill="white"/>
<path d="M549 303H546V306H549V303Z" fill="white"/>
<path d="M459 309H456V312H459V309Z" fill="white"/>
<path d="M462 309H459V312H462V309Z" fill="white"/>
<path d="M483 309H480V312H483V309Z" fill="white"/>
<path d="M486 309H483V312H486V309Z" fill="white"/>
<path d="M492 309H489V312H492V309Z" fill="white"/>
<path d="M495 309H492V312H495V309Z" fill="white"/>
<path d="M504 309H501V312H504V309Z" fill="white"/>
<path d="M507 309H504V312H507V309Z" fill="white"/>
<path d="M513 309H510V312H513V309Z" fill="white"/>
<path d="M516 309H513V312H516V309Z" fill="white"/>
<path d="M525 309H522V312H525V309Z" fill="white"/>
<path d="M528 309H525V312H528V309Z" fill="white"/>
<path d="M537 309H534V312H537V309Z" fill="white"/>
<path d="M540 309H537V312H540V309Z" fill="white"/>
<path d="M546 309H543V312H546V309Z" fill="white"/>
<path d="M549 309H546V312H549V309Z" fill="white"/>
<path d="M450 312H447V315H450V312Z" fill="white"/>
<path d="M453 312H450V315H453V312Z" fill="white"/>
<path d="M459 312H456V315H459V312Z" fill="white"/>
<path d="M462 312H459V315H462V312Z" fill="white"/>
<path d="M480 312H477V315H480V312Z" fill="white"/>
<path d="M483 312H480V315H483V312Z" fill="white"/>
<path d="M486 312H483V315H486V312Z" fill="white"/>
<path d="M492 312H489V315H492V312Z" fill="white"/>
<path d="M504 312H501V315H504V312Z" fill="white"/>
<path d="M507 312H504V315H507V312Z" fill="white"/>
<path d="M513 312H510V315H513V312Z" fill="white"/>
<path d="M516 312H513V315H516V312Z" fill="white"/>
<path d="M519 312H516V315H519V312Z" fill="white"/>
<path d="M525 312H522V315H525V312Z" fill="white"/>
<path d="M528 312H525V315H528V312Z" fill="white"/>
<path d="M534 312H531V315H534V312Z" fill="white"/>
<path d="M537 312H534V315H537V312Z" fill="white"/>
<path d="M540 312H537V315H540V312Z" fill="white"/>
<path d="M546 312H543V315H546V312Z" fill="white"/>
<path d="M549 312H546V315H549V312Z" fill="white"/>
<path d="M450 318H447V321H450V318Z" fill="white"/>
<path d="M483 318H480V321H483V318Z" fill="white"/>
<path d="M504 318H501V321H504V318Z" fill="white"/>
<path d="M516 318H513V321H516V318Z" fill="white"/>
<path d="M537 318H534V321H537V318Z" fill="white"/>
<path d="M441 321H438V324H441V321Z" fill="white"/>
<path d="M450 321H447V324H450V321Z" fill="white"/>
<path d="M453 321H450V324H453V321Z" fill="white"/>
<path d="M471 321H468V324H471V321Z" fill="white"/>
<path d="M474 321H471V324H474V321Z" fill="white"/>
<path d="M480 321H477V324H480V321Z" fill="white"/>
<path d="M483 321H480V324H483V321Z" fill="white"/>
<path d="M504 321H501V324H504V321Z" fill="white"/>
<path d="M507 321H504V324H507V321Z" fill="white"/>
<path d="M513 321H510V324H513V321Z" fill="white"/>
<path d="M516 321H513V324H516V321Z" fill="white"/>
<path d="M519 321H516V324H519V321Z" fill="white"/>
<path d="M525 321H522V324H525V321Z" fill="white"/>
<path d="M528 321H525V324H528V321Z" fill="white"/>
<path d="M534 321H531V324H534V321Z" fill="white"/>
<path d="M537 321H534V324H537V321Z" fill="white"/>
<path d="M540 321H537V324H540V321Z" fill="white"/>
<path d="M441 324H438V327H441V324Z" fill="white"/>
<path d="M450 324H447V327H450V324Z" fill="white"/>
<path d="M471 324H468V327H471V324Z" fill="white"/>
<path d="M474 324H471V327H474V324Z" fill="white"/>
<path d="M504 324H501V327H504V324Z" fill="white"/>
<path d="M507 324H504V327H507V324Z" fill="white"/>
<path d="M516 324H513V327H516V324Z" fill="white"/>
<path d="M525 324H522V327H525V324Z" fill="white"/>
<path d="M528 324H525V327H528V324Z" fill="white"/>
<path d="M537 324H534V327H537V324Z" fill="white"/>
<path d="M438 330H435V333H438V330Z" fill="white"/>
<path d="M441 330H438V333H441V330Z" fill="white"/>
<path d="M462 330H459V333H462V330Z" fill="white"/>
<path d="M471 330H468V333H471V330Z" fill="white"/>
<path d="M507 330H504V333H507V330Z" fill="white"/>
<path d="M513 330H510V333H513V330Z" fill="white"/>
<path d="M516 330H513V333H516V330Z" fill="white"/>
<path d="M525 330H522V333H525V330Z" fill="white"/>
<path d="M528 330H525V333H528V330Z" fill="white"/>
<path d="M537 330H534V333H537V330Z" fill="white"/>
<path d="M429 333H426V336H429V333Z" fill="white"/>
<path d="M432 333H429V336H432V333Z" fill="white"/>
<path d="M438 333H435V336H438V333Z" fill="white"/>
<path d="M441 333H438V336H441V333Z" fill="white"/>
<path d="M459 333H456V336H459V333Z" fill="white"/>
<path d="M462 333H459V336H462V333Z" fill="white"/>
<path d="M465 333H462V336H465V333Z" fill="white"/>
<path d="M471 333H468V336H471V333Z" fill="white"/>
<path d="M507 333H504V336H507V333Z" fill="white"/>
<path d="M513 333H510V336H513V333Z" fill="white"/>
<path d="M516 333H513V336H516V333Z" fill="white"/>
<path d="M519 333H516V336H519V333Z" fill="white"/>
<path d="M525 333H522V336H525V333Z" fill="white"/>
<path d="M528 333H525V336H528V333Z" fill="white"/>
<path d="M534 333H531V336H534V333Z" fill="white"/>
<path d="M426 342H423V345H426V342Z" fill="white"/>
<path d="M429 342H426V345H429V342Z" fill="white"/>
<path d="M432 342H429V345H432V342Z" fill="white"/>
<path d="M450 342H447V345H450V342Z" fill="white"/>
<path d="M453 342H450V345H453V342Z" fill="white"/>
<path d="M459 342H456V345H459V342Z" fill="white"/>
<path d="M462 342H459V345H462V342Z" fill="white"/>
<path d="M513 342H510V345H513V342Z" fill="white"/>
<path d="M516 342H513V345H516V342Z" fill="white"/>
<path d="M519 342H516V345H519V342Z" fill="white"/>
<path d="M525 342H522V345H525V342Z" fill="white"/>
<path d="M528 342H525V345H528V342Z" fill="white"/>
<path d="M420 345H417V348H420V345Z" fill="white"/>
<path d="M426 345H423V348H426V345Z" fill="white"/>
<path d="M429 345H426V348H429V345Z" fill="white"/>
<path d="M432 345H429V348H432V345Z" fill="white"/>
<path d="M450 345H447V348H450V345Z" fill="white"/>
<path d="M453 345H450V348H453V345Z" fill="white"/>
<path d="M513 345H510V348H513V345Z" fill="white"/>
<path d="M516 345H513V348H516V345Z" fill="white"/>
<path d="M525 345H522V348H525V345Z" fill="white"/>
<path d="M417 351H414V354H417V351Z" fill="white"/>
<path d="M420 351H417V354H420V351Z" fill="white"/>
<path d="M429 351H426V354H429V351Z" fill="white"/>
<path d="M438 351H435V354H438V351Z" fill="white"/>
<path d="M441 351H438V354H441V351Z" fill="white"/>
<path d="M450 351H447V354H450V351Z" fill="white"/>
<path d="M516 351H513V354H516V351Z" fill="white"/>
<path d="M72 354H69V357H72V354Z" fill="white"/>
<path d="M126 354H123V357H126V354Z" fill="white"/>
<path d="M180 354H177V357H180V354Z" fill="white"/>
<path d="M375 354H372V357H375V354Z" fill="white"/>
<path d="M408 354H405V357H408V354Z" fill="white"/>
<path d="M417 354H414V357H417V354Z" fill="white"/>
<path d="M420 354H417V357H420V354Z" fill="white"/>
<path d="M426 354H423V357H426V354Z" fill="white"/>
<path d="M429 354H426V357H429V354Z" fill="white"/>
<path d="M432 354H429V357H432V354Z" fill="white"/>
<path d="M438 354H435V357H438V354Z" fill="white"/>
<path d="M441 354H438V357H441V354Z" fill="white"/>
<path d="M450 354H447V357H450V354Z" fill="white"/>
<path d="M516 354H513V357H516V354Z" fill="white"/>
<path d="M624 354H621V357H624V354Z" fill="white"/>
<path d="M678 354H675V357H678V354Z" fill="white"/>
<path d="M732 354H729V357H732V354Z" fill="white"/>
<path d="M408 357H405V360H408V357Z" fill="white"/>
<path d="M417 357H414V360H417V357Z" fill="white"/>
<path d="M420 357H417V360H420V357Z" fill="white"/>
<path d="M429 357H426V360H429V357Z" fill="white"/>
<path d="M441 357H438V360H441V357Z" fill="white"/>
<path d="M405 363H402V366H405V363Z" fill="white"/>
<path d="M408 363H405V366H408V363Z" fill="white"/>
<path d="M417 363H414V366H417V363Z" fill="white"/>
<path d="M420 363H417V366H420V363Z" fill="white"/>
<path d="M426 363H423V366H426V363Z" fill="white"/>
<path d="M429 363H426V366H429V363Z" fill="white"/>
<path d="M432 363H429V366H432V363Z" fill="white"/>
<path d="M438 363H435V366H438V363Z" fill="white"/>
<path d="M441 363H438V366H441V363Z" fill="white"/>
<path d="M396 366H393V369H396V366Z" fill="white"/>
<path d="M399 366H396V369H399V366Z" fill="white"/>
<path d="M405 366H402V369H405V366Z" fill="white"/>
<path d="M408 366H405V369H408V366Z" fill="white"/>
<path d="M417 366H414V369H417V366Z" fill="white"/>
<path d="M420 366H417V369H420V366Z" fill="white"/>
<path d="M426 366H423V369H426V366Z" fill="white"/>
<path d="M429 366H426V369H429V366Z" fill="white"/>
<path d="M432 366H429V369H432V366Z" fill="white"/>
<path d="M438 366H435V369H438V366Z" fill="white"/>
<path d="M387 375H384V378H387V375Z" fill="white"/>
<path d="M396 375H393V378H396V375Z" fill="white"/>
<path d="M399 375H396V378H399V375Z" fill="white"/>
<path d="M405 375H402V378H405V375Z" fill="white"/>
<path d="M408 375H405V378H408V375Z" fill="white"/>
<path d="M417 375H414V378H417V375Z" fill="white"/>
<path d="M420 375H417V378H420V375Z" fill="white"/>
<path d="M426 375H423V378H426V375Z" fill="white"/>
<path d="M429 375H426V378H429V375Z" fill="white"/>
<path d="M387 378H384V381H387V378Z" fill="white"/>
<path d="M396 378H393V381H396V378Z" fill="white"/>
<path d="M399 378H396V381H399V378Z" fill="white"/>
<path d="M405 378H402V381H405V378Z" fill="white"/>
<path d="M408 378H405V381H408V378Z" fill="white"/>
<path d="M417 378H414V381H417V378Z" fill="white"/>
<path d="M420 378H417V381H420V378Z" fill="white"/>
<path d="M384 384H381V387H384V384Z" fill="white"/>
<path d="M387 384H384V387H387V384Z" fill="white"/>
<path d="M396 384H393V387H396V384Z" fill="white"/>
<path d="M399 384H396V387H399V384Z" fill="white"/>
<path d="M405 384H402V387H405V384Z" fill="white"/>
<path d="M408 384H405V387H408V384Z" fill="white"/>
<path d="M417 384H414V387H417V384Z" fill="white"/>
<path d="M375 387H372V390H375V387Z" fill="white"/>
<path d="M378 387H375V390H378V387Z" fill="white"/>
<path d="M384 387H381V390H384V387Z" fill="white"/>
<path d="M387 387H384V390H387V387Z" fill="white"/>
<path d="M393 387H390V390H393V387Z" fill="white"/>
<path d="M396 387H393V390H396V387Z" fill="white"/>
<path d="M399 387H396V390H399V387Z" fill="white"/>
<path d="M405 387H402V390H405V387Z" fill="white"/>
<path d="M408 387H405V390H408V387Z" fill="white"/>
<path d="M417 387H414V390H417V387Z" fill="white"/>
<path d="M396 390H393V393H396V390Z" fill="white"/>
<path d="M372 396H369V399H372V396Z" fill="white"/>
<path d="M375 396H372V399H375V396Z" fill="white"/>
<path d="M378 396H375V399H378V396Z" fill="white"/>
<path d="M384 396H381V399H384V396Z" fill="white"/>
<path d="M387 396H384V399H387V396Z" fill="white"/>
<path d="M396 396H393V399H396V396Z" fill="white"/>
<path d="M399 396H396V399H399V396Z" fill="white"/>
<path d="M405 396H402V399H405V396Z" fill="white"/>
<path d="M408 396H405V399H408V396Z" fill="white"/>
<path d="M366 399H363V402H366V399Z" fill="white"/>
<path d="M372 399H369V402H372V399Z" fill="white"/>
<path d="M375 399H372V402H375V399Z" fill="white"/>
<path d="M378 399H375V402H378V399Z" fill="white"/>
<path d="M384 399H381V402H384V399Z" fill="white"/>
<path d="M387 399H384V402H387V399Z" fill="white"/>
<path d="M396 399H393V402H396V399Z" fill="white"/>
<path d="M399 399H396V402H399V399Z" fill="white"/>
<path d="M363 405H360V408H363V405Z" fill="white"/>
<path d="M366 405H363V408H366V405Z" fill="white"/>
<path d="M375 405H372V408H375V405Z" fill="white"/>
<path d="M384 405H381V408H384V405Z" fill="white"/>
<path d="M387 405H384V408H387V405Z" fill="white"/>
<path d="M396 405H393V408H396V405Z" fill="white"/>
<path d="M72 408H69V411H72V408Z" fill="white"/>
<path d="M126 408H123V411H126V408Z" fill="white"/>
<path d="M180 408H177V411H180V408Z" fill="white"/>
<path d="M354 408H351V411H354V408Z" fill="white"/>
<path d="M363 408H360V411H363V408Z" fill="white"/>
<path d="M366 408H363V411H366V408Z" fill="white"/>
<path d="M372 408H369V411H372V408Z" fill="white"/>
<path d="M375 408H372V411H375V408Z" fill="white"/>
<path d="M378 408H375V411H378V408Z" fill="white"/>
<path d="M384 408H381V411H384V408Z" fill="white"/>
<path d="M387 408H384V411H387V408Z" fill="white"/>
<path d="M393 408H390V411H393V408Z" fill="white"/>
<path d="M396 408H393V411H396V408Z" fill="white"/>
<path d="M429 408H426V411H429V408Z" fill="white"/>
<path d="M624 408H621V411H624V408Z" fill="white"/>
<path d="M678 408H675V411H678V408Z" fill="white"/>
<path d="M732 408H729V411H732V408Z" fill="white"/>
<path d="M354 411H351V414H354V411Z" fill="white"/>
<path d="M363 411H360V414H363V411Z" fill="white"/>
<path d="M366 411H363V414H366V411Z" fill="white"/>
<path d="M375 411H372V414H375V411Z" fill="white"/>
<path d="M384 411H381V414H384V411Z" fill="white"/>
<path d="M387 411H384V414H387V411Z" fill="white"/>
<path d="M351 417H348V420H351V417Z" fill="white"/>
<path d="M354 417H351V420H354V417Z" fill="white"/>
<path d="M363 417H360V420H363V417Z" fill="white"/>
<path d="M366 417H363V420H366V417Z" fill="white"/>
<path d="M372 417H369V420H372V417Z" fill="white"/>
<path d="M375 417H372V420H375V417Z" fill="white"/>
<path d="M378 417H375V420H378V417Z" fill="white"/>
<path d="M384 417H381V420H384V417Z" fill="white"/>
<path d="M387 417H384V420H387V417Z" fill="white"/>
<path d="M342 420H339V423H342V420Z" fill="white"/>
<path d="M345 420H342V423H345V420Z" fill="white"/>
<path d="M351 420H348V423H351V420Z" fill="white"/>
<path d="M354 420H351V423H354V420Z" fill="white"/>
<path d="M363 420H360V423H363V420Z" fill="white"/>
<path d="M366 420H363V423H366V420Z" fill="white"/>
<path d="M372 420H369V423H372V420Z" fill="white"/>
<path d="M375 420H372V423H375V420Z" fill="white"/>
<path d="M378 420H375V423H378V420Z" fill="white"/>
<path d="M384 420H381V423H384V420Z" fill="white"/>
<path d="M342 429H339V432H342V429Z" fill="white"/>
<path d="M345 429H342V432H345V429Z" fill="white"/>
<path d="M351 429H348V432H351V429Z" fill="white"/>
<path d="M354 429H351V432H354V429Z" fill="white"/>
<path d="M363 429H360V432H363V429Z" fill="white"/>
<path d="M366 429H363V432H366V429Z" fill="white"/>
<path d="M372 429H369V432H372V429Z" fill="white"/>
<path d="M375 429H372V432H375V429Z" fill="white"/>
<path d="M333 432H330V435H333V432Z" fill="white"/>
<path d="M342 432H339V435H342V432Z" fill="white"/>
<path d="M345 432H342V435H345V432Z" fill="white"/>
<path d="M351 432H348V435H351V432Z" fill="white"/>
<path d="M354 432H351V435H354V432Z" fill="white"/>
<path d="M363 432H360V435H363V432Z" fill="white"/>
<path d="M366 432H363V435H366V432Z" fill="white"/>
<path d="M330 438H327V441H330V438Z" fill="white"/>
<path d="M333 438H330V441H333V438Z" fill="white"/>
<path d="M342 438H339V441H342V438Z" fill="white"/>
<path d="M345 438H342V441H345V438Z" fill="white"/>
<path d="M351 438H348V441H351V438Z" fill="white"/>
<path d="M354 438H351V441H354V438Z" fill="white"/>
<path d="M363 438H360V441H363V438Z" fill="white"/>
<path d="M321 441H318V444H321V441Z" fill="white"/>
<path d="M324 441H321V444H324V441Z" fill="white"/>
<path d="M330 441H327V444H330V441Z" fill="white"/>
<path d="M333 441H330V444H333V441Z" fill="white"/>
<path d="M339 441H336V444H339V441Z" fill="white"/>
<path d="M342 441H339V444H342V441Z" fill="white"/>
<path d="M345 441H342V444H345V441Z" fill="white"/>
<path d="M351 441H348V444H351V441Z" fill="white"/>
<path d="M354 441H351V444H354V441Z" fill="white"/>
<path d="M363 441H360V444H363V441Z" fill="white"/>
<path d="M321 444H318V447H321V444Z" fill="white"/>
<path d="M342 444H339V447H342V444Z" fill="white"/>
<path d="M318 450H315V453H318V450Z" fill="white"/>
<path d="M321 450H318V453H321V450Z" fill="white"/>
<path d="M324 450H321V453H324V450Z" fill="white"/>
<path d="M330 450H327V453H330V450Z" fill="white"/>
<path d="M333 450H330V453H333V450Z" fill="white"/>
<path d="M342 450H339V453H342V450Z" fill="white"/>
<path d="M345 450H342V453H345V450Z" fill="white"/>
<path d="M351 450H348V453H351V450Z" fill="white"/>
<path d="M354 450H351V453H354V450Z" fill="white"/>
<path d="M312 453H309V456H312V453Z" fill="white"/>
<path d="M318 453H315V456H318V453Z" fill="white"/>
<path d="M321 453H318V456H321V453Z" fill="white"/>
<path d="M324 453H321V456H324V453Z" fill="white"/>
<path d="M330 453H327V456H330V453Z" fill="white"/>
<path d="M333 453H330V456H333V453Z" fill="white"/>
<path d="M342 453H339V456H342V453Z" fill="white"/>
<path d="M345 453H342V456H345V453Z" fill="white"/>
<path d="M309 459H306V462H309V459Z" fill="white"/>
<path d="M321 459H318V462H321V459Z" fill="white"/>
<path d="M330 459H327V462H330V459Z" fill="white"/>
<path d="M333 459H330V462H333V459Z" fill="white"/>
<path d="M342 459H339V462H342V459Z" fill="white"/>
<path d="M300 462H297V465H300V462Z" fill="white"/>
<path d="M309 462H306V465H309V462Z" fill="white"/>
<path d="M312 462H309V465H312V462Z" fill="white"/>
<path d="M318 462H315V465H318V462Z" fill="white"/>
<path d="M321 462H318V465H321V462Z" fill="white"/>
<path d="M324 462H321V465H324V462Z" fill="white"/>
<path d="M330 462H327V465H330V462Z" fill="white"/>
<path d="M333 462H330V465H333V462Z" fill="white"/>
<path d="M339 462H336V465H339V462Z" fill="white"/>
<path d="M342 462H339V465H342V462Z" fill="white"/>
<path d="M300 465H297V468H300V465Z" fill="white"/>
<path d="M309 465H306V468H309V465Z" fill="white"/>
<path d="M312 465H309V468H312V465Z" fill="white"/>
<path d="M321 465H318V468H321V465Z" fill="white"/>
<path d="M330 465H327V468H330V465Z" fill="white"/>
<path d="M333 465H330V468H333V465Z" fill="white"/>
<path d="M297 471H294V474H297V471Z" fill="white"/>
<path d="M300 471H297V474H300V471Z" fill="white"/>
<path d="M309 471H306V474H309V471Z" fill="white"/>
<path d="M312 471H309V474H312V471Z" fill="white"/>
<path d="M318 471H315V474H318V471Z" fill="white"/>
<path d="M321 471H318V474H321V471Z" fill="white"/>
<path d="M330 471H327V474H330V471Z" fill="white"/>
<path d="M288 474H285V477H288V474Z" fill="white"/>
<path d="M291 474H288V477H291V474Z" fill="white"/>
<path d="M297 474H294V477H297V474Z" fill="white"/>
<path d="M300 474H297V477H300V474Z" fill="white"/>
<path d="M309 474H306V477H309V474Z" fill="white"/>
<path d="M312 474H309V477H312V474Z" fill="white"/>
<path d="M318 474H315V477H318V474Z" fill="white"/>
<path d="M321 474H318V477H321V474Z" fill="white"/>
<path d="M324 474H321V477H324V474Z" fill="white"/>
<path d="M330 474H327V477H330V474Z" fill="white"/>
<path d="M285 483H282V486H285V483Z" fill="white"/>
<path d="M288 483H285V486H288V483Z" fill="white"/>
<path d="M291 483H288V486H291V483Z" fill="white"/>
<path d="M297 483H294V486H297V483Z" fill="white"/>
<path d="M300 483H297V486H300V483Z" fill="white"/>
<path d="M309 483H306V486H309V483Z" fill="white"/>
<path d="M312 483H309V486H312V483Z" fill="white"/>
<path d="M318 483H315V486H318V483Z" fill="white"/>
<path d="M321 483H318V486H321V483Z" fill="white"/>
<path d="M279 486H276V489H279V486Z" fill="white"/>
<path d="M288 486H285V489H288V486Z" fill="white"/>
<path d="M291 486H288V489H291V486Z" fill="white"/>
<path d="M297 486H294V489H297V486Z" fill="white"/>
<path d="M300 486H297V489H300V486Z" fill="white"/>
<path d="M309 486H306V489H309V486Z" fill="white"/>
<path d="M312 486H309V489H312V486Z" fill="white"/>
<path d="M276 492H273V495H276V492Z" fill="white"/>
<path d="M279 492H276V495H279V492Z" fill="white"/>
<path d="M288 492H285V495H288V492Z" fill="white"/>
<path d="M297 492H294V495H297V492Z" fill="white"/>
<path d="M300 492H297V495H300V492Z" fill="white"/>
<path d="M309 492H306V495H309V492Z" fill="white"/>
<path d="M267 495H264V498H267V495Z" fill="white"/>
<path d="M270 495H267V498H270V495Z" fill="white"/>
<path d="M276 495H273V498H276V495Z" fill="white"/>
<path d="M279 495H276V498H279V495Z" fill="white"/>
<path d="M285 495H282V498H285V495Z" fill="white"/>
<path d="M288 495H285V498H288V495Z" fill="white"/>
<path d="M291 495H288V498H291V495Z" fill="white"/>
<path d="M297 495H294V498H297V495Z" fill="white"/>
<path d="M300 495H297V498H300V495Z" fill="white"/>
<path d="M309 495H306V498H309V495Z" fill="white"/>
<path d="M267 498H264V501H267V498Z" fill="white"/>
<path d="M288 498H285V501H288V498Z" fill="white"/>
<path d="M300 498H297V501H300V498Z" fill="white"/>
<path d="M264 504H261V507H264V504Z" fill="white"/>
<path d="M267 504H264V507H267V504Z" fill="white"/>
<path d="M270 504H267V507H270V504Z" fill="white"/>
<path d="M276 504H273V507H276V504Z" fill="white"/>
<path d="M279 504H276V507H279V504Z" fill="white"/>
<path d="M288 504H285V507H288V504Z" fill="white"/>
<path d="M291 504H288V507H291V504Z" fill="white"/>
<path d="M297 504H294V507H297V504Z" fill="white"/>
<path d="M300 504H297V507H300V504Z" fill="white"/>
<path d="M258 507H255V510H258V507Z" fill="white"/>
<path d="M264 507H261V510H264V507Z" fill="white"/>
<path d="M267 507H264V510H267V507Z" fill="white"/>
<path d="M276 507H273V510H276V507Z" fill="white"/>
<path d="M279 507H276V510H279V507Z" fill="white"/>
<path d="M288 507H285V510H288V507Z" fill="white"/>
<path d="M291 507H288V510H291V507Z" fill="white"/>
<path d="M255 513H252V516H255V513Z" fill="white"/>
<path d="M267 513H264V516H267V513Z" fill="white"/>
<path d="M279 513H276V516H279V513Z" fill="white"/>
<path d="M288 513H285V516H288V513Z" fill="white"/>
<path d="M246 516H243V519H246V516Z" fill="white"/>
<path d="M255 516H252V519H255V516Z" fill="white"/>
<path d="M258 516H255V519H258V516Z" fill="white"/>
<path d="M264 516H261V519H264V516Z" fill="white"/>
<path d="M267 516H264V519H267V516Z" fill="white"/>
<path d="M270 516H267V519H270V516Z" fill="white"/>
<path d="M276 516H273V519H276V516Z" fill="white"/>
<path d="M279 516H276V519H279V516Z" fill="white"/>
<path d="M285 516H282V519H285V516Z" fill="white"/>
<path d="M288 516H285V519H288V516Z" fill="white"/>
<path d="M246 519H243V522H246V519Z" fill="white"/>
<path d="M255 519H252V522H255V519Z" fill="white"/>
<path d="M258 519H255V522H258V519Z" fill="white"/>
<path d="M267 519H264V522H267V519Z" fill="white"/>
<path d="M276 519H273V522H276V519Z" fill="white"/>
<path d="M279 519H276V522H279V519Z" fill="white"/>
<path d="M243 525H240V528H243V525Z" fill="white"/>
<path d="M246 525H243V528H246V525Z" fill="white"/>
<path d="M255 525H252V528H255V525Z" fill="white"/>
<path d="M258 525H255V528H258V525Z" fill="white"/>
<path d="M264 525H261V528H264V525Z" fill="white"/>
<path d="M267 525H264V528H267V525Z" fill="white"/>
<path d="M276 525H273V528H276V525Z" fill="white"/>
<path d="M234 528H231V531H234V528Z" fill="white"/>
<path d="M237 528H234V531H237V528Z" fill="white"/>
<path d="M243 528H240V531H243V528Z" fill="white"/>
<path d="M246 528H243V531H246V528Z" fill="white"/>
<path d="M255 528H252V531H255V528Z" fill="white"/>
<path d="M258 528H255V531H258V528Z" fill="white"/>
<path d="M264 528H261V531H264V528Z" fill="white"/>
<path d="M267 528H264V531H267V528Z" fill="white"/>
<path d="M270 528H267V531H270V528Z" fill="white"/>
<path d="M276 528H273V531H276V528Z" fill="white"/>
<path d="M231 537H228V540H231V537Z" fill="white"/>
<path d="M234 537H231V540H234V537Z" fill="white"/>
<path d="M237 537H234V540H237V537Z" fill="white"/>
<path d="M243 537H240V540H243V537Z" fill="white"/>
<path d="M246 537H243V540H246V537Z" fill="white"/>
<path d="M255 537H252V540H255V537Z" fill="white"/>
<path d="M258 537H255V540H258V537Z" fill="white"/>
<path d="M264 537H261V540H264V537Z" fill="white"/>
<path d="M267 537H264V540H267V537Z" fill="white"/>
<path d="M225 540H222V543H225V540Z" fill="white"/>
<path d="M234 540H231V543H234V540Z" fill="white"/>
<path d="M237 540H234V543H237V540Z" fill="white"/>
<path d="M243 540H240V543H243V540Z" fill="white"/>
<path d="M246 540H243V543H246V540Z" fill="white"/>
<path d="M255 540H252V543H255V540Z" fill="white"/>
<path d="M258 540H255V543H258V540Z" fill="white"/>
<path d="M222 546H219V549H222V546Z" fill="white"/>
<path d="M225 546H222V549H225V546Z" fill="white"/>
<path d="M234 546H231V549H234V546Z" fill="white"/>
<path d="M243 546H240V549H243V546Z" fill="white"/>
<path d="M246 546H243V549H246V546Z" fill="white"/>
<path d="M255 546H252V549H255V546Z" fill="white"/>
<path d="M213 549H210V552H213V549Z" fill="white"/>
<path d="M216 549H213V552H216V549Z" fill="white"/>
<path d="M222 549H219V552H222V549Z" fill="white"/>
<path d="M225 549H222V552H225V549Z" fill="white"/>
<path d="M231 549H228V552H231V549Z" fill="white"/>
<path d="M234 549H231V552H234V549Z" fill="white"/>
<path d="M237 549H234V552H237V549Z" fill="white"/>
<path d="M243 549H240V552H243V549Z" fill="white"/>
<path d="M246 549H243V552H246V549Z" fill="white"/>
<path d="M255 549H252V552H255V549Z" fill="white"/>
<path d="M213 552H210V555H213V552Z" fill="white"/>
<path d="M222 552H219V555H222V552Z" fill="white"/>
<path d="M225 552H222V555H225V552Z" fill="white"/>
<path d="M234 552H231V555H234V552Z" fill="white"/>
<path d="M246 552H243V555H246V552Z" fill="white"/>
<path d="M210 558H207V561H210V558Z" fill="white"/>
<path d="M213 558H210V561H213V558Z" fill="white"/>
<path d="M222 558H219V561H222V558Z" fill="white"/>
<path d="M225 558H222V561H225V558Z" fill="white"/>
<path d="M231 558H228V561H231V558Z" fill="white"/>
<path d="M234 558H231V561H234V558Z" fill="white"/>
<path d="M237 558H234V561H237V558Z" fill="white"/>
<path d="M243 558H240V561H243V558Z" fill="white"/>
<path d="M246 558H243V561H246V558Z" fill="white"/>
<path d="M204 561H201V564H204V561Z" fill="white"/>
<path d="M210 561H207V564H210V561Z" fill="white"/>
<path d="M213 561H210V564H213V561Z" fill="white"/>
<path d="M222 561H219V564H222V561Z" fill="white"/>
<path d="M225 561H222V564H225V561Z" fill="white"/>
<path d="M231 561H228V564H231V561Z" fill="white"/>
<path d="M234 561H231V564H234V561Z" fill="white"/>
<path d="M237 561H234V564H237V561Z" fill="white"/>
<path d="M201 567H198V570H201V567Z" fill="white"/>
<path d="M213 567H210V570H213V567Z" fill="white"/>
<path d="M192 570H189V573H192V570Z" fill="white"/>
<path d="M201 570H198V573H201V570Z" fill="white"/>
<path d="M204 570H201V573H204V570Z" fill="white"/>
<path d="M210 570H207V573H210V570Z" fill="white"/>
<path d="M213 570H210V573H213V570Z" fill="white"/>
<path d="M216 570H213V573H216V570Z" fill="white"/>
<path d="M222 570H219V573H222V570Z" fill="white"/>
<path d="M225 570H222V573H225V570Z" fill="white"/>
<path d="M231 570H228V573H231V570Z" fill="white"/>
<path d="M234 570H231V573H234V570Z" fill="white"/>
<path d="M192 573H189V576H192V573Z" fill="white"/>
<path d="M201 573H198V576H201V573Z" fill="white"/>
<path d="M204 573H201V576H204V573Z" fill="white"/>
<path d="M210 573H207V576H210V573Z" fill="white"/>
<path d="M213 573H210V576H213V573Z" fill="white"/>
<path d="M222 573H219V576H222V573Z" fill="white"/>
<path d="M225 573H222V576H225V573Z" fill="white"/>
<path d="M189 579H186V582H189V579Z" fill="white"/>
<path d="M192 579H189V582H192V579Z" fill="white"/>
<path d="M201 579H198V582H201V579Z" fill="white"/>
<path d="M204 579H201V582H204V579Z" fill="white"/>
<path d="M210 579H207V582H210V579Z" fill="white"/>
<path d="M213 579H210V582H213V579Z" fill="white"/>
<path d="M222 579H219V582H222V579Z" fill="white"/>
<path d="M180 582H177V585H180V582Z" fill="white"/>
<path d="M183 582H180V585H183V582Z" fill="white"/>
<path d="M189 582H186V585H189V582Z" fill="white"/>
<path d="M192 582H189V585H192V582Z" fill="white"/>
<path d="M201 582H198V585H201V582Z" fill="white"/>
<path d="M204 582H201V585H204V582Z" fill="white"/>
<path d="M210 582H207V585H210V582Z" fill="white"/>
<path d="M213 582H210V585H213V582Z" fill="white"/>
<path d="M216 582H213V585H216V582Z" fill="white"/>
<path d="M222 582H219V585H222V582Z" fill="white"/>
<path d="M177 591H174V594H177V591Z" fill="white"/>
<path d="M180 591H177V594H180V591Z" fill="white"/>
<path d="M183 591H180V594H183V591Z" fill="white"/>
<path d="M189 591H186V594H189V591Z" fill="white"/>
<path d="M192 591H189V594H192V591Z" fill="white"/>
<path d="M201 591H198V594H201V591Z" fill="white"/>
<path d="M204 591H201V594H204V591Z" fill="white"/>
<path d="M210 591H207V594H210V591Z" fill="white"/>
<path d="M213 591H210V594H213V591Z" fill="white"/>
<path d="M171 594H168V597H171V594Z" fill="white"/>
<path d="M180 594H177V597H180V594Z" fill="white"/>
<path d="M183 594H180V597H183V594Z" fill="white"/>
<path d="M189 594H186V597H189V594Z" fill="white"/>
<path d="M192 594H189V597H192V594Z" fill="white"/>
<path d="M201 594H198V597H201V594Z" fill="white"/>
<path d="M204 594H201V597H204V594Z" fill="white"/>
<path d="M168 600H165V603H168V600Z" fill="white"/>
<path d="M171 600H168V603H171V600Z" fill="white"/>
<path d="M180 600H177V603H180V600Z" fill="white"/>
<path d="M189 600H186V603H189V600Z" fill="white"/>
<path d="M192 600H189V603H192V600Z" fill="white"/>
<path d="M201 600H198V603H201V600Z" fill="white"/>
<path d="M126 603H123V606H126V603Z" fill="white"/>
<path d="M162 603H159V606H162V603Z" fill="white"/>
<path d="M168 603H165V606H168V603Z" fill="white"/>
<path d="M171 603H168V606H171V603Z" fill="white"/>
<path d="M177 603H174V606H177V603Z" fill="white"/>
<path d="M180 603H177V606H180V603Z" fill="white"/>
<path d="M183 603H180V606H183V603Z" fill="white"/>
<path d="M189 603H186V606H189V603Z" fill="white"/>
<path d="M192 603H189V606H192V603Z" fill="white"/>
<path d="M201 603H198V606H201V603Z" fill="white"/>
<path d="M375 603H372V606H375V603Z" fill="white"/>
<path d="M429 603H426V606H429V603Z" fill="white"/>
<path d="M624 603H621V606H624V603Z" fill="white"/>
<path d="M678 603H675V606H678V603Z" fill="white"/>
<path d="M732 603H729V606H732V603Z" fill="white"/>
<path d="M168 606H165V609H168V606Z" fill="white"/>
<path d="M171 606H168V609H171V606Z" fill="white"/>
<path d="M180 606H177V609H180V606Z" fill="white"/>
<path d="M192 606H189V609H192V606Z" fill="white"/>
<path d="M168 612H165V615H168V612Z" fill="white"/>
<path d="M171 612H168V615H171V612Z" fill="white"/>
<path d="M177 612H174V615H177V612Z" fill="white"/>
<path d="M180 612H177V615H180V612Z" fill="white"/>
<path d="M183 612H180V615H183V612Z" fill="white"/>
<path d="M189 612H186V615H189V612Z" fill="white"/>
<path d="M192 612H189V615H192V612Z" fill="white"/>
<path d="M168 615H165V618H168V615Z" fill="white"/>
<path d="M171 615H168V618H171V615Z" fill="white"/>
<path d="M177 615H174V618H177V615Z" fill="white"/>
<path d="M180 615H177V618H180V615Z" fill="white"/>
<path d="M183 615H180V618H183V615Z" fill="white"/>
<path d="M189 615H186V618H189V615Z" fill="white"/>
<path d="M180 621H177V624H180V621Z" fill="white"/>
<path d="M72 657H69V660H72V657Z" fill="white"/>
<path d="M126 657H123V660H126V657Z" fill="white"/>
<path d="M180 657H177V660H180V657Z" fill="white"/>
<path d="M375 657H372V660H375V657Z" fill="white"/>
<path d="M429 657H426V660H429V657Z" fill="white"/>
<path d="M624 657H621V660H624V657Z" fill="white"/>
<path d="M678 657H675V660H678V657Z" fill="white"/>
<path d="M732 657H729V660H732V657Z" fill="white"/>
<path d="M126 711H123V714H126V711Z" fill="white"/>
<path d="M375 711H372V714H375V711Z" fill="white"/>
<path d="M429 711H426V714H429V711Z" fill="white"/>
<path d="M678 711H675V714H678V711Z" fill="white"/>
</g>
<defs>
<clipPath id="clip0_2_2">
<rect width="783" height="783" fill="white"/>
</clipPath>
</defs>
</svg>
